HIERARCHY
ROOT hip
{
	OFFSET 0.000000 0.000000 0.000000
	CHANNELS 6 Xposition Yposition Zposition Xrotation Zrotation Yrotation 
	JOINT abdomen
	{
		OFFSET 0.000000 3.422050 0.000000
		CHANNELS 3 Xrotation Zrotation Yrotation 
		JOINT chest
		{
			OFFSET 0.000000 8.486693 -0.6844110
			CHANNELS 3 Xrotation Zrotation Yrotation 
			JOINT neck
			{
				OFFSET 0.000000 10.26616 -0.2737640
				CHANNELS 3 Xrotation Zrotation Yrotation 
				JOINT head
				{
					OFFSET 0.000000 3.148285 0.000000
					CHANNELS 3 Xrotation Zrotation Yrotation 
					End Site
					{
						OFFSET 0.000000 3.148289 0.000000
					}
				}
			}
			JOINT lCollar
			{
				OFFSET 3.422053 6.707223 -0.8212930
				CHANNELS 3 Yrotation Zrotation Xrotation 
				JOINT lShldr
				{
					OFFSET 3.285171 0.000000 0.000000
					CHANNELS 3 Zrotation Yrotation Xrotation 
					JOINT lForeArm
					{
						OFFSET 10.12928 0.000000 0.000000
						CHANNELS 3 Yrotation Zrotation Xrotation 
						JOINT lHand
						{
							OFFSET 8.486692 0.000000 0.000000
							CHANNELS 3 Zrotation Yrotation Xrotation 
							End Site
							{
								OFFSET 4.106464 0.000000 0.000000
							}
						}
					}
				}
			}
			JOINT rCollar
			{
				OFFSET -3.558935 6.707223 -0.8212930
				CHANNELS 3 Yrotation Zrotation Xrotation 
				JOINT rShldr
				{
					OFFSET -3.148289 0.000000 0.000000
					CHANNELS 3 Zrotation Yrotation Xrotation 
					JOINT rForeArm
					{
						OFFSET -10.26616 0.000000 0.000000
						CHANNELS 3 Yrotation Zrotation Xrotation 
						JOINT rHand
						{
							OFFSET -8.349810 0.000000 0.000000
							CHANNELS 3 Zrotation Yrotation Xrotation 
							End Site
							{
								OFFSET -4.106464 0.000000 0.000000
							}
						}
					}
				}
			}
		}
	}
	JOINT lThigh
	{
		OFFSET 5.338403 -1.642589 1.368821
		CHANNELS 3 Xrotation Zrotation Yrotation 
		JOINT lShin
		{
			OFFSET -2.053232 -20.12167 0.000000
			CHANNELS 3 Xrotation Zrotation Yrotation 
			JOINT lFoot
			{
				OFFSET 0.000000 -19.30038 -1.231939
				CHANNELS 3 Xrotation Yrotation Zrotation 
				End Site
				{
					OFFSET 0.000000 -2.463878 4.653993
				}
			}
		}
	}
	JOINT rThigh
	{
		OFFSET -5.338403 -1.642589 1.368821
		CHANNELS 3 Xrotation Zrotation Yrotation 
		JOINT rShin
		{
			OFFSET 2.053232 -20.12167 0.000000
			CHANNELS 3 Xrotation Zrotation Yrotation 
			JOINT rFoot
			{
				OFFSET 0.000000 -19.30038 -1.231939
				CHANNELS 3 Xrotation Yrotation Zrotation 
				End Site
				{
					OFFSET 0.000000 -2.463878 4.653993
				}
			}
		}
	}
}
MOTION
Frames:	10
Frame Time:	0.03333333
0.000000 43.52852 0.000000 0.000000 0.000000 0.000000 0.000000 0.000000 0.000000 0.000000 0.000000 0.000000 0.000000 0.000000 0.000000 0.000000 0.000000 0.000000 0.000000 0.000000 0.000000 0.000000 0.000000 0.000000 0.000000 0.000000 0.000000 0.000000 0.000000 0.000000 0.000000 0.000000 0.000000 0.000000 0.000000 0.000000 0.000000 0.000000 0.000000 0.000000 0.000000 0.000000 0.000000 0.000000 0.000000 0.000000 0.000000 0.000000 0.000000 0.000000 0.000000 0.000000 0.000000 0.000000 0.000000 0.000000 0.000000 0.000000 0.000000 0.000000 
0.000000 43.52852 0.000000 1.000000 0.000000 0.000000 1.000000 0.000000 0.000000 1.000000 0.000000 0.000000 1.000000 0.000000 0.000000 1.000000 0.000000 0.000000 0.000000 0.000000 1.000000 -74.00000 32.00000 0.000000 -121.0000 0.000000 0.000000 0.000000 0.000000 0.000000 0.000000 0.000000 1.000000 74.00000 -32.00000 0.000000 121.0000 0.000000 0.000000 0.000000 0.000000 0.000000 -11.00000 0.000000 0.000000 104.0000 0.000000 0.000000 -14.00000 0.000000 0.000000 -11.00000 0.000000 0.000000 25.00000 0.000000 0.000000 -14.00000 0.000000 0.000000 
0.8461539 43.52852 0.000000 1.000000 0.000000 0.000000 1.000000 0.000000 0.000000 1.000000 0.000000 0.000000 1.000000 0.000000 0.000000 1.000000 0.000000 0.000000 0.000000 0.000000 1.000000 -74.00000 23.76923 0.000000 -118.6154 1.076923 0.000000 0.000000 0.000000 -6.923077 0.000000 0.000000 1.000000 74.00000 -23.76923 0.000000 118.6154 -1.076923 0.000000 0.000000 0.000000 -6.923077 -11.00000 1.538462 1.000000 97.92308 0.000000 0.000000 -14.00000 0.000000 0.000000 -11.00000 -1.538462 -1.000000 25.00000 0.000000 0.000000 -14.00000 0.000000 0.000000 
1.692308 43.52852 0.000000 1.000000 0.000000 0.000000 1.000000 0.000000 0.000000 1.000000 0.000000 0.000000 1.000000 0.000000 0.000000 1.000000 0.000000 0.000000 0.000000 0.000000 1.000000 -74.00000 15.53846 0.000000 -116.2308 2.153846 0.000000 0.000000 0.000000 -13.84615 0.000000 0.000000 1.000000 74.00000 -15.53846 0.000000 116.2308 -2.153846 0.000000 0.000000 0.000000 -13.84615 -11.00000 3.076923 2.000000 91.84615 0.000000 0.000000 -14.00000 0.000000 0.000000 -11.00000 -3.076923 -2.000000 25.00000 0.000000 0.000000 -14.00000 0.000000 0.000000 
2.538461 43.52852 0.000000 1.000000 0.000000 0.000000 1.000000 0.000000 0.000000 1.000000 0.000000 0.000000 1.000000 0.000000 0.000000 1.000000 0.000000 0.000000 0.000000 0.000000 1.000000 -74.00000 7.307693 0.000000 -113.8462 3.230769 0.000000 0.000000 0.000000 -20.76923 0.000000 0.000000 1.000000 74.00000 -7.307693 0.000000 113.8462 -3.230769 0.000000 0.000000 0.000000 -20.76923 -11.00000 4.615385 3.000000 85.76923 0.000000 0.000000 -14.00000 0.000000 0.000000 -11.00000 -4.615385 -3.000000 25.00000 0.000000 0.000000 -14.00000 0.000000 0.000000 
3.384615 43.52852 0.000000 1.000000 0.000000 0.000000 1.000000 0.000000 0.000000 1.000000 0.000000 0.000000 1.000000 0.000000 0.000000 1.000000 0.000000 0.000000 0.000000 0.000000 1.000000 -74.00000 -0.9230769 0.000000 -111.4615 4.307693 0.000000 0.000000 0.000000 -27.69231 0.000000 0.000000 1.000000 74.00000 0.9230769 0.000000 111.4615 -4.307693 0.000000 0.000000 0.000000 -27.69231 -11.00000 6.153846 4.000000 79.69231 0.000000 0.000000 -14.00000 0.000000 0.000000 -11.00000 -6.153846 -4.000000 25.00000 0.000000 0.000000 -14.00000 0.000000 0.000000 
4.230769 43.52852 0.000000 1.000000 0.000000 0.000000 1.000000 0.000000 0.000000 1.000000 0.000000 0.000000 1.000000 0.000000 0.000000 1.000000 0.000000 0.000000 0.000000 0.000000 1.000000 -74.00000 -9.153846 0.000000 -109.0769 5.384615 0.000000 0.000000 0.000000 -34.61538 0.000000 0.000000 1.000000 74.00000 9.153846 0.000000 109.0769 -5.384615 0.000000 0.000000 0.000000 -34.61538 -11.00000 7.692307 5.000000 73.61539 0.000000 0.000000 -14.00000 0.000000 0.000000 -11.00000 -7.692307 -5.000000 25.00000 0.000000 0.000000 -14.00000 0.000000 0.000000 
5.076923 43.52852 0.000000 1.000000 0.000000 0.000000 1.000000 0.000000 0.000000 1.000000 0.000000 0.000000 1.000000 0.000000 0.000000 1.000000 0.000000 0.000000 0.000000 0.000000 1.000000 -74.00000 -17.38461 0.000000 -106.6923 6.461538 0.000000 0.000000 0.000000 -41.53846 0.000000 0.000000 1.000000 74.00000 17.38461 0.000000 106.6923 -6.461538 0.000000 0.000000 0.000000 -41.53846 -11.00000 9.230769 6.000000 67.53846 0.000000 0.000000 -14.00000 0.000000 0.000000 -11.00000 -9.230769 -6.000000 25.00000 0.000000 0.000000 -14.00000 0.000000 0.000000 
5.923077 43.52852 0.000000 1.000000 0.000000 0.000000 1.000000 0.000000 0.000000 1.000000 0.000000 0.000000 1.000000 0.000000 0.000000 1.000000 0.000000 0.000000 0.000000 0.000000 1.000000 -74.00000 -25.61539 0.000000 -104.3077 7.538462 0.000000 0.000000 0.000000 -48.46154 0.000000 0.000000 1.000000 74.00000 25.61539 0.000000 104.3077 -7.538462 0.000000 0.000000 0.000000 -48.46154 -11.00000 10.76923 7.000000 61.46154 0.000000 0.000000 -14.00000 0.000000 0.000000 -11.00000 -10.76923 -7.000000 25.00000 0.000000 0.000000 -14.00000 0.000000 0.000000 
6.769231 43.52852 0.000000 1.000000 0.000000 0.000000 1.000000 0.000000 0.000000 1.000000 0.000000 0.000000 1.000000 0.000000 0.000000 1.000000 0.000000 0.000000 0.000000 0.000000 1.000000 -74.00000 -33.84615 0.000000 -101.9231 8.615385 0.000000 0.000000 0.000000 -55.38462 0.000000 0.000000 1.000000 74.00000 33.84615 0.000000 101.9231 -8.615385 0.000000 0.000000 0.000000 -55.38462 -11.00000 12.30769 8.000000 55.38462 0.000000 0.000000 -14.00000 0.000000 0.000000 -11.00000 -12.30769 -8.000000 25.00000 0.000000 0.000000 -14.00000 0.000000 0.000000 
